<svg xmlns="http://www.w3.org/2000/svg"><symbol id="marker" viewBox="0 0 512 512"><style>.st0{fill:#231f20}</style><path class="st0" d="M256 76.8c-69 0-125 58.6-125 130.9 0 72.3 105.3 227.6 125 227.6S381 280 381 207.7c0-72.3-56-130.9-125-130.9zm0 182.2c-33.2 0-60.1-26.9-60.1-60.2 0-33.2 26.9-60.1 60.1-60.1s60.1 26.9 60.1 60.1S289.2 259 256 259z"/></symbol><symbol id="stadium" viewBox="0 0 960 960"><path d="M482.256 481.197c-79.913 0-154.956 7.642-211.309 21.516-12.172 2.998-22.755 6.126-31.938 9.304 68.744 11.967 152.656 18.999 243.247 18.999 90.588 0 174.497-7.032 243.241-18.999-9.183-3.178-19.762-6.306-31.937-9.304-56.35-13.874-131.395-21.516-211.304-21.516z"/><path d="M482.256 466.357c104.692 0 213.972 13.995 270.212 40.551 28.833-5.928 54.396-12.786 75.943-20.39-11.203-12.734-39.344-27.849-92.74-40.997-67.577-16.64-157.574-25.805-253.415-25.805-95.848 0-185.843 9.165-253.42 25.805-53.395 13.148-81.537 28.263-92.739 40.997 21.548 7.604 47.112 14.462 75.944 20.39 56.24-26.556 165.519-40.551 270.215-40.551z"/><path d="M482.256 583.955c-187.906 0-349.517-32.63-421.229-79.505l53.447 196.911c.326 1.709.781 2.923 1.384 4.61l.139.028h.062c15.14 41.644 108.439 75.19 235.281 89.03-6.325-32.236-14.165-72.229-15.816-80.842-2.859-14.907 14.089-35.106 24.1-48.226C369.632 652.85 377.875 640 391.574 640h194.787c17.793 0 20.73 8.596 32.758 26.066 12.025 17.467 27.666 37.202 25.413 47.809-1.298 6.107-9.848 46.349-16.865 79.383 125.984-15.679 215.688-51.13 222.531-93.023l53.234-195.877c-71.736 46.86-233.317 79.597-421.176 79.597z"/><path d="M573.412 817.005c0 11.709-9.492 20.995-21.199 20.995H425.016c-11.709 0-21.2-9.286-21.2-20.995l-12.721-62.703c0-11.704 9.493-20.302 21.201-20.302h152.638c11.707 0 21.197 8.598 21.197 20.302l-12.719 62.703zM853 377.53v-53.736l28.369 5.514c7.936 1.542 14.368-3.544 14.368-10.71l8.621-37.184c0-7.168-6.434-14.157-14.368-15.698l-103.455-20.109c-7.935-1.542-14.366 2.943-14.366 10.114l8.621 40.533c0 7.167 6.433 14.756 14.368 16.299L829 319.129v48.824c-73.387-26.019-193.833-43.382-331-44.621V263h33.719c7.935 0 14.368-6.511 14.368-13.677l8.62-38.639c0-7.168-6.431-12.684-14.365-12.684H436.887c-7.936 0-14.369 5.516-14.369 12.684l8.622 38.639c0 7.166 6.434 13.677 14.368 13.677H475v60.277c-140.375.583-264.054 18.046-339 44.503v-48.54l34.413-6.689c7.936-1.543 14.369-9.132 14.369-16.299l8.62-40.533c0-7.17-6.43-11.655-14.366-10.114l-103.454 20.11c-7.936 1.541-14.369 8.53-14.369 15.698l8.62 37.184c0 7.166 6.434 12.252 14.369 10.71L114 323.516v52.903c-34.148 15-53.62 32.3-53.62 50.721 0 19.055 20.86 36.912 57.237 52.263 34.898-51.314 204.254-78.764 364.639-78.764 160.379 0 329.736 27.45 364.634 78.764 36.379-15.352 57.238-33.208 57.238-52.263 0-17.968-18.526-34.869-51.128-49.61z"/></symbol></svg>